arm26_ForwardRun_states
version=1
nRows=13
nColumns=17
inDegrees=yes

# SIMM Motion File Header:
name arm26_ForwardRun_states
datacolumns 17
datarows 13
otherdata 1
range 0.00000000 0.00040858
endheader
time	r_shoulder/r_shoulder_elev/r_shoulder_elev	r_shoulder/r_shoulder_elev/r_shoulder_elev_u	r_elbow/r_elbow_flex/r_elbow_flex	r_elbow/r_elbow_flex/r_elbow_flex_u	TRIlong/activation	TRIlong/fiber_length	TRIlat/activation	TRIlat/fiber_length	TRImed/activation	TRImed/fiber_length	BIClong/activation	BIClong/fiber_length	BICshort/activation	BICshort/fiber_length	BRA/activation	BRA/fiber_length
      0.00000000	    -90.00000018	      0.00000000	      0.00000000	      0.00000000	      0.05000000	      0.10000000	      0.05000000	      0.10000000	      0.05000000	      0.10000000	      0.05000000	      0.10000000	      0.05000000	      0.10000000	      0.05000000	      0.10000000
      0.00001273	    -89.99999541	      0.01209741	     -0.00000277	     -0.00594684	      0.04999414	      0.10270242	      0.04999414	      0.09999583	      0.04999414	      0.09999583	      0.04999414	      0.10848154	      0.04999414	      0.12009318	      0.04999414	      0.09998606
      0.00002547	    -89.99998369	      0.01937540	     -0.00000684	     -0.00424381	      0.04998829	      0.10455288	      0.04998829	      0.09999167	      0.04998829	      0.09999167	      0.04998829	      0.11566217	      0.04998829	      0.13499846	      0.04998829	      0.09997214
      0.00004626	    -89.99995669	      0.02493736	     -0.00000586	      0.00706345	      0.04997873	      0.10643381	      0.04997873	      0.09998486	      0.04997873	      0.09998486	      0.04997873	      0.12534733	      0.04997873	      0.15306938	      0.04997873	      0.09994944
      0.00006706	    -89.99992597	      0.02612306	      0.00001150	      0.02232794	      0.04996917	      0.10747964	      0.04996917	      0.09997806	      0.04996917	      0.09997806	      0.04996917	      0.13310045	      0.04996917	      0.16587449	      0.04996917	      0.09992679
      0.00009342	    -89.99988724	      0.02486484	      0.00005988	      0.04134337	      0.04995705	      0.10817352	      0.04995705	      0.09996944	      0.04995705	      0.09996944	      0.04995705	      0.14076920	      0.04995705	      0.17655421	      0.04995705	      0.09989814
      0.00011979	    -89.99985120	      0.02286544	      0.00013455	      0.05676499	      0.04994494	      0.10852778	      0.04994494	      0.09996081	      0.04994494	      0.09996081	      0.04994494	      0.14649405	      0.04994494	      0.18272009	      0.04994494	      0.09986957
      0.00014615	    -89.99981790	      0.02135548	      0.00022902	      0.06760554	      0.04993283	      0.10874476	      0.04993283	      0.09995219	      0.04993283	      0.09995219	      0.04993283	      0.15066745	      0.04993283	      0.18600018	      0.04993283	      0.09984107
      0.00018609	    -89.99977032	      0.02049643	      0.00039584	      0.07698748	      0.04991450	      0.10895143	      0.04991450	      0.09993912	      0.04991450	      0.09993912	      0.04991450	      0.15478551	      0.04991450	      0.18813057	      0.04991450	      0.09979803
      0.00022604	    -89.99972299	      0.02106228	      0.00057716	      0.08076189	      0.04989617	      0.10908077	      0.04989617	      0.09992606	      0.04989617	      0.09992606	      0.04989617	      0.15711490	      0.04989617	      0.18883308	      0.04989617	      0.09975516
      0.00028116	    -89.99965333	      0.02323574	      0.00083381	      0.08111133	      0.04987090	      0.10919213	      0.04987090	      0.09990803	      0.04987090	      0.09990803	      0.04987090	      0.15869195	      0.04987090	      0.18909702	      0.04987090	      0.09969626
      0.00033629	    -89.99957543	      0.02617313	      0.00108695	      0.07892920	      0.04984564	      0.10925986	      0.04984564	      0.09989000	      0.04984564	      0.09989000	      0.04984564	      0.15934778	      0.04984564	      0.18915018	      0.04984564	      0.09963767
      0.00040858	    -89.99945829	      0.03042328	      0.00140549	      0.07476247	      0.04981254	      0.10931249	      0.04981254	      0.09986636	      0.04981254	      0.09986636	      0.04981254	      0.15966089	      0.04981254	      0.18916445	      0.04981254	      0.09956132
